<?xml version="1.0" standalone="no"?>
<!DOCTYPE svg PUBLIC "-//W3C//DTD SVG 20010904//EN"
 "http://www.w3.org/TR/2001/REC-SVG-20010904/DTD/svg10.dtd">
<svg version="1.0" xmlns="http://www.w3.org/2000/svg"
 width="300.000000pt" height="300.000000pt" viewBox="0 0 300.000000 300.000000"
 preserveAspectRatio="xMidYMid meet">
<metadata>
Created by potrace 1.14, written by Peter Selinger 2001-2017
</metadata>
<g transform="translate(0.000000,300.000000) scale(0.100000,-0.100000)"
fill="#000000" stroke="none">
<path d="M912 1889 c-132 -26 -247 -120 -293 -240 -19 -51 -24 -83 -24 -154 0
-79 4 -98 31 -155 39 -83 110 -154 194 -194 58 -28 75 -31 155 -31 71 0 104 5
153 24 122 46 215 162 244 305 22 113 -26 249 -121 339 -60 58 -118 88 -200
106 -58 12 -78 12 -139 0z m61 -169 c-3 -11 0 -20 6 -20 6 0 16 9 23 20 7 11
20 20 29 20 12 0 16 -6 12 -20 -5 -18 0 -20 60 -20 110 0 157 -32 157 -105 0
-88 -95 -166 -264 -215 l-89 -26 -24 -69 c-27 -76 -43 -101 -43 -68 0 11 -10
43 -21 72 l-22 51 43 130 44 130 58 0 58 0 -20 -50 c-11 -27 -26 -66 -35 -86
-19 -46 -19 -44 5 -44 32 0 136 56 159 86 29 37 29 99 0 115 -14 7 -83 11
-185 12 l-163 1 -11 29 c-5 17 -10 32 -10 33 0 2 42 4 94 4 85 0 94 2 99 20 3
12 14 20 25 20 15 0 19 -5 15 -20z"/>
<path d="M1429 1878 c-4 -8 -5 -735 -1 -745 3 -9 32 -13 98 -13 l94 0 0 380 0
380 -95 0 c-52 0 -96 -1 -96 -2z"/>
<path d="M1705 1868 c-3 -7 -4 -177 -3 -378 l3 -365 95 0 95 0 2 50 c1 28 2
62 2 78 l1 27 129 0 c153 0 211 15 276 72 24 21 57 64 72 96 23 47 28 70 28
132 0 64 -5 85 -30 134 -33 65 -78 109 -144 140 -42 19 -67 21 -284 24 -189 3
-238 1 -242 -10z m485 -218 c34 -46 29 -120 -11 -156 -18 -16 -40 -19 -150
-22 l-129 -4 -1 24 c-1 29 -1 159 0 175 1 14 133 21 220 12 40 -4 57 -11 71
-29z"/>
</g>
</svg>
