<?xml version="1.0" standalone="no"?>
<!DOCTYPE svg PUBLIC "-//W3C//DTD SVG 20010904//EN"
 "http://www.w3.org/TR/2001/REC-SVG-20010904/DTD/svg10.dtd">
<svg version="1.0" xmlns="http://www.w3.org/2000/svg"
 width="260.000000pt" height="260.000000pt" viewBox="0 0 260.000000 260.000000"
 preserveAspectRatio="xMidYMid meet">
<metadata>
Created by potrace 1.14, written by Peter Selinger 2001-2017
</metadata>
<g transform="translate(0.000000,260.000000) scale(0.100000,-0.100000)"
fill="#000000" stroke="none">
<path d="M1169 2596 c-4 -3 -85 -16 -116 -18 -7 -1 -13 -6 -13 -12 0 -6 -5 -4
-10 4 -5 8 -10 10 -10 4 0 -6 -10 -10 -22 -10 -13 1 -28 -1 -34 -6 -6 -4 -19
-9 -30 -11 -10 -1 -24 -6 -30 -9 -6 -4 -21 -9 -35 -12 -37 -7 -59 -17 -59 -28
0 -5 -4 -7 -8 -4 -5 3 -30 -6 -55 -19 -26 -13 -47 -20 -47 -17 0 4 -5 0 -10
-8 -5 -8 -13 -15 -17 -15 -7 0 -34 -16 -158 -97 -10 -7 -27 -22 -37 -33 -9
-11 -18 -15 -18 -10 0 6 -9 -3 -20 -20 -11 -16 -20 -26 -20 -22 0 4 -18 -11
-40 -34 -22 -23 -40 -46 -40 -51 0 -5 -4 -6 -10 -3 -5 3 -10 2 -10 -3 0 -5 -9
-20 -21 -33 -12 -13 -35 -44 -52 -69 -17 -25 -34 -47 -37 -50 -4 -3 -19 -31
-35 -62 -16 -32 -33 -58 -37 -58 -4 0 -8 -9 -8 -19 0 -11 -5 -23 -10 -26 -6
-4 -8 -11 -5 -16 4 -5 1 -9 -4 -9 -6 0 -11 -9 -11 -20 0 -11 -4 -20 -8 -20 -5
0 -9 -6 -10 -12 -2 -23 -7 -43 -15 -55 -5 -7 -5 -18 -2 -23 3 -6 0 -13 -9 -16
-8 -3 -12 -12 -9 -20 3 -8 1 -20 -5 -27 -5 -6 -8 -20 -7 -29 2 -10 -1 -20 -6
-24 -5 -3 -7 -10 -4 -15 4 -5 3 -15 -2 -21 -12 -19 -17 -89 -17 -238 -1 -155
10 -246 42 -348 6 -18 12 -36 13 -40 6 -24 12 -39 20 -54 5 -10 9 -25 9 -33 0
-8 5 -15 11 -15 5 0 8 -4 5 -8 -2 -4 4 -28 15 -52 11 -25 20 -47 19 -48 -1 -2
7 -10 17 -18 10 -7 15 -14 11 -14 -8 0 57 -107 79 -128 7 -7 13 -16 13 -20 0
-4 20 -29 45 -57 24 -27 45 -54 45 -58 0 -5 4 -5 10 -2 5 3 10 1 10 -5 0 -10
28 -38 110 -109 19 -17 38 -31 42 -31 4 0 13 -6 20 -13 25 -22 77 -57 87 -57
5 0 11 -3 13 -8 5 -11 172 -92 191 -92 9 0 17 -5 17 -12 0 -6 3 -8 6 -5 4 3
16 1 27 -4 11 -6 34 -13 51 -16 17 -3 38 -9 47 -14 9 -4 19 -5 23 -2 3 3 6 2
6 -3 0 -5 15 -10 33 -11 17 0 54 -5 80 -11 27 -5 115 -9 195 -7 141 3 180 6
202 20 6 3 10 1 10 -6 0 -8 3 -9 14 0 7 6 32 12 55 14 22 1 41 5 41 10 0 4 8
7 18 7 10 0 22 3 26 7 3 4 15 8 26 10 11 2 49 16 84 32 36 16 67 27 70 23 3
-3 6 -1 6 4 0 6 16 16 35 24 19 8 35 16 35 19 0 4 15 13 33 21 33 14 44 22 78
53 10 9 19 15 19 12 0 -6 27 16 92 75 89 80 99 90 91 90 -4 0 -1 5 8 10 9 5
36 35 59 67 24 32 51 64 59 71 8 6 11 12 7 12 -4 0 1 12 12 28 36 50 81 139
75 146 -4 3 -1 6 6 6 8 0 11 6 7 16 -3 8 -2 12 4 9 6 -3 10 3 10 14 0 12 4 21
8 21 5 0 9 7 10 15 1 8 3 22 4 30 1 8 6 15 11 15 5 0 7 9 4 20 -3 11 -2 20 3
20 7 0 18 41 23 83 1 9 4 17 7 17 3 0 7 10 7 23 1 12 5 45 10 72 13 78 7 415
-7 415 -4 0 -7 11 -8 25 -5 57 -7 65 -15 65 -4 0 -6 4 -3 9 3 5 -1 25 -9 45
-8 20 -12 36 -9 36 3 0 0 10 -8 23 -8 12 -20 41 -28 65 -7 23 -17 42 -22 42
-4 0 -7 3 -6 8 4 11 -26 72 -35 72 -5 0 -6 3 -3 8 4 7 -77 132 -129 197 -39
48 -135 145 -143 145 -4 0 -13 9 -20 20 -7 11 -18 20 -25 20 -7 0 -18 9 -25
20 -7 11 -17 20 -23 20 -10 0 -24 10 -60 43 -10 9 -22 18 -26 18 -18 3 -39 14
-51 26 -7 7 -20 13 -28 13 -8 0 -14 5 -14 10 0 6 -3 9 -7 8 -5 -1 -26 7 -48
17 -22 10 -42 19 -45 19 -3 1 -18 6 -35 13 -49 19 -157 51 -195 58 -19 3 -46
8 -60 11 -29 6 -326 15 -331 10z"/>
</g>
</svg>
